#!OML:ASF H:\MichaelJackson\Top Level 1\Subject 1\Session 1\male.ASF
:FULLY-SPECIFIED
:DEGREES
758
root 6.07058 16.3639 -2.32358 -160.965 198.934 -174.014
lowerback -3.15218 -4.26996 1.46002
upperback -3.71753 -5.7174 2.03968
thorax -1.99357 -2.88105 1.20106
lowerneck -10.6063 -7.76716 1.13321
upperneck 2.42768 -10.655 2.66942
head 2.6971 -5.19193 0.0689772
rclavicle 2.28602e-014 -1.59028e-015
rhumerus -57.7195 -9.82919 -80.3589
rradius 79.5577
rwrist -1.88939
rhand -31.4502 -41.949
rfingers 7.12502
rthumb -4.71786 288.124
lclavicle 2.28602e-014 -1.59028e-015
lhumerus -59.0345 -40.3121 115.226
lradius 67.9959
lwrist 23.9918
lhand 1.36496 13.8068
lfingers 7.12502
lthumb 26.8971 41.9131
rfemur -48.7556 -29.0778 24.1934
rtibia 60.3481
rfoot -23.3242 -28.3374
rtoes 0.0528013
lfemur -24.8118 25.7042 -36.1944
ltibia 36.0316
lfoot -37.0938 22.1146
ltoes 21.8612
759
root 6.02655 16.3398 -2.24327 -161.125 199.41 -174.011
lowerback -3.07374 -4.26774 1.64268
upperback -3.62175 -5.71669 2.00969
thorax -1.95956 -2.88442 1.07209
lowerneck -10.5718 -7.85889 1.06222
upperneck 2.0906 -10.7605 2.72664
head 2.58429 -5.25134 0.103335
rclavicle 9.34288e-015 7.95139e-015
rhumerus -58.0686 -10.3817 -79.7981
rradius 79.4242
rwrist -2.28992
rhand -31.3834 -41.9855
rfingers 7.12502
rthumb -4.65336 288.086
lclavicle 9.34288e-015 7.95139e-015
lhumerus -58.8014 -40.2672 114.471
lradius 68.4802
lwrist 24.1376
lhand 0.318858 13.4249
lfingers 7.12502
lthumb 25.8957 41.6814
rfemur -47.9588 -28.5925 23.5508
rtibia 60.4587
rfoot -23.1747 -28.2193
rtoes -3.62974
lfemur -24.6055 25.7828 -35.7437
ltibia 37.0828
lfoot -36.8427 22.3254
ltoes 19.1642
760
root 5.98142 16.3143 -2.16107 -161.331 199.942 -174.082
lowerback -2.95867 -4.23 1.85439
upperback -3.50226 -5.66785 1.98973
thorax -1.92347 -2.86373 0.939782
lowerneck -10.5261 -7.95418 0.989255
upperneck 1.75725 -10.8697 2.76601
head 2.47028 -5.31319 0.132743
rclavicle 4.11484e-014 2.14687e-014
rhumerus -58.3664 -10.8125 -79.266
rradius 79.3295
rwrist -2.88926
rhand -31.1561 -42.0477
rfingers 7.12502
rthumb -4.43392 288.019
lclavicle 4.11484e-014 2.14687e-014
lhumerus -58.5628 -40.2047 113.709
lradius 68.9075
lwrist 24.178
lhand -0.916901 12.8175
lfingers 7.12502
lthumb 24.7119 41.2415
rfemur -47.0517 -28.0341 22.8838
rtibia 60.5776
rfoot -23.0308 -27.9437
rtoes -7.23406
lfemur -24.4276 25.7522 -35.0933
ltibia 38.4914
lfoot -36.4845 22.4085
ltoes 16.0386
761
root 5.93528 16.2884 -2.08056 -161.49 200.455 -174.212
lowerback -2.84779 -4.1817 2.07801
upperback -3.40223 -5.60436 1.99463
thorax -1.9035 -2.83566 0.826991
lowerneck -10.4789 -8.04988 0.911066
upperneck 1.45007 -10.9788 2.78486
head 2.36443 -5.37504 0.156068
rclavicle 4.11484e-014 7.95139e-015
rhumerus -58.6145 -11.1246 -78.7563
rradius 79.2766
rwrist -3.63425
rhand -30.777 -42.1522
rfingers 7.12502
rthumb -4.06776 287.907
lclavicle 4.11484e-014 7.95139e-015
lhumerus -58.3384 -40.1318 112.951
lradius 69.2967
lwrist 24.1469
lhand -2.11272 12.1361
lfingers 7.12502
lthumb 23.5653 40.7123
rfemur -46.1864 -27.4688 22.284
rtibia 60.7131
rfoot -22.8986 -27.525
rtoes -10.5912
lfemur -24.4284 25.5766 -34.2782
ltibia 40.3133
lfoot -35.8706 22.3037
ltoes 12.2567
762
root 5.88817 16.262 -2.0015 -161.612 200.955 -174.398
lowerback -2.72677 -4.12894 2.30106
upperback -3.32411 -5.53359 2.02505
thorax -1.90881 -2.80379 0.742375
lowerneck -10.4131 -8.14195 0.811177
upperneck 1.18014 -11.0811 2.79645
head 2.26909 -5.4331 0.180869
rclavicle -7.25564e-014 -1.19271e-014
rhumerus -58.8096 -11.3077 -78.27
rradius 79.2673
rwrist -4.46016
rhand -30.2665 -42.2881
rfingers 7.12502
rthumb -3.57483 287.762
lclavicle -7.25564e-014 -1.19271e-014
lhumerus -58.1361 -40.0493 112.199
lradius 69.6695
lwrist 24.1045
lhand -3.27279 11.4537
lfingers 7.12502
lthumb 22.4521 40.1687
rfemur -45.3704 -26.9212 21.7569
rtibia 60.8702
rfoot -22.7984 -26.9592
rtoes -13.525
lfemur -24.628 25.3092 -33.2998
ltibia 42.5817
lfoot -34.9013 21.9588
ltoes 7.75032
763
root 5.84017 16.2353 -1.9236 -161.707 201.456 -174.629
lowerback -2.59451 -4.07517 2.5108
upperback -3.26751 -5.45983 2.07645
thorax -1.9389 -2.77017 0.688217
lowerneck -10.3041 -8.22431 0.684459
upperneck 0.93946 -11.1679 2.81318
head 2.17816 -5.48303 0.213572
rclavicle -4.79071e-014 -1.11319e-014
rhumerus -58.9502 -11.3557 -77.8135
rradius 79.3051
rwrist -5.30375
rhand -29.6553 -42.4209
rfingers 7.12502
rthumb -2.9846 287.62
lclavicle -4.79071e-014 -1.11319e-014
lhumerus -57.9646 -39.9502 111.445
lradius 70.0517
lwrist 24.0941
lhand -4.32238 10.834
lfingers 7.12502
lthumb 21.4444 39.6671
rfemur -44.6122 -26.4105 21.3021
rtibia 61.0523
rfoot -22.7236 -26.2628
rtoes -16.0167
lfemur -25.0393 24.9837 -32.1643
ltibia 45.3009
lfoot -33.4846 21.2772
ltoes 2.73757
764
root 5.7914 16.2079 -1.84684 -161.785 201.962 -174.889
lowerback -2.43624 -4.0191 2.69756
upperback -3.22677 -5.3808 2.13337
thorax -1.99684 -2.7337 0.654924
lowerneck -10.1872 -8.29947 0.543999
upperneck 0.745729 -11.2458 2.84123
head 2.10357 -5.52701 0.251409
rclavicle -2.22639e-014 -6.36111e-015
rhumerus -59.0195 -11.2939 -77.3942
rradius 79.3864
rwrist -6.10966
rhand -28.9804 -42.519
rfingers 7.12502
rthumb -2.3328 287.514
lclavicle -2.22639e-014 -6.36111e-015
lhumerus -57.8266 -39.8691 110.675
lradius 70.4682
lwrist 24.1352
lhand -5.22072 10.3127
lfingers 7.12502
lthumb 20.5813 39.2417
rfemur -43.917 -25.9529 20.9103
rtibia 61.26
rfoot -22.6482 -25.4782
rtoes -18.1372
lfemur -25.6641 24.6007 -30.8837
ltibia 48.4419
lfoot -31.5452 20.1908
ltoes -2.41734
